<svg width="300" height="125" viewBox="0 0 300 125" fill="none" xmlns="http://www.w3.org/2000/svg">
<g clip-path="url(#clip0_1404_2423)">
<path d="M22.0538 86.2759C25.5766 91.1534 30.0954 95.2344 35.3139 98.2517C40.5325 101.269 46.3326 103.154 52.3345 103.783C49.2467 99.1583 44.7582 94.9032 39.1549 91.6636C33.5516 88.424 27.6175 86.6543 22.0538 86.2759Z" fill="url(#paint0_linear_1404_2423)"/>
<path d="M46.6842 78.7641C35.8889 72.5212 24.2045 70.9302 15.844 73.7408C16.6511 76.396 17.7155 78.9669 19.0223 81.4173C26.2862 81.2497 34.217 83.2134 41.5967 87.4799C48.9765 91.7464 54.6208 97.6347 58.0748 104C60.8619 103.915 63.6344 103.561 66.3533 102.945C64.6629 94.3248 57.477 85.0083 46.6842 78.7641Z" fill="url(#paint1_linear_1404_2423)"/>
<path d="M98.1278 53.4242C96.7553 47.8671 94.2718 42.6423 90.8256 38.0618C87.3795 33.4813 83.0414 29.6389 78.0704 26.7642C73.0994 23.8895 67.5973 22.0414 61.893 21.3302C56.1884 20.619 50.3984 21.0593 44.8687 22.6249C54.1067 23.7502 64.3609 27.2022 74.4171 33.0175C84.4735 38.8327 92.5725 45.9885 98.1278 53.4242Z" fill="url(#paint2_linear_1404_2423)"/>
<path d="M84.687 73.8044C79.9583 65.9876 71.858 58.5025 61.8792 52.7325C51.9006 46.9622 41.3582 43.6663 32.2021 43.4483C24.1469 43.2583 18.1012 45.5892 15.6196 49.8418C15.6055 49.8669 15.5857 49.8908 15.5701 49.9162C15.3469 50.7138 15.1547 51.5126 14.9794 52.3146C18.4446 50.9529 22.4595 50.1948 26.9238 50.1102C36.8515 49.9248 47.962 53.0855 58.2149 59.0146C68.4676 64.9439 76.7362 72.9886 81.4902 81.6621C83.6215 85.5699 84.9512 89.4172 85.4783 93.0928C86.0917 92.5471 86.6937 91.9829 87.2774 91.3965C87.293 91.3698 87.3029 91.3415 87.3183 91.3135C89.8 87.0569 88.8403 80.676 84.687 73.8044Z" fill="url(#paint3_linear_1404_2423)"/>
<path d="M54.2875 65.7383C39.0066 56.9016 22.1203 55.5173 14 61.6842C14.0159 63.6145 14.1642 65.5414 14.4437 67.4517C16.8324 66.7309 19.2943 66.277 21.7839 66.0986C30.8581 65.419 40.8621 67.9357 49.9406 73.1881C59.0188 78.4407 66.1753 85.8484 70.0785 94.0252C71.1575 96.2654 71.9804 98.619 72.5318 101.042C74.3379 100.337 76.0939 99.5112 77.7877 98.5702C79.1471 88.4927 69.5727 74.5765 54.2875 65.7383Z" fill="url(#paint4_linear_1404_2423)"/>
<path d="M92.5467 60.7209C87.7646 52.9124 79.5935 45.4064 69.5441 39.5982C59.4949 33.79 48.9113 30.4421 39.7256 30.1734C32.7232 29.9723 27.2994 31.6617 24.4871 34.8534C36.1644 32.8841 51.5668 36.194 66.4958 44.8268C81.4251 53.4597 91.9477 65.1407 96.0093 76.2126C97.4013 72.2022 96.1901 66.6754 92.5467 60.7209Z" fill="url(#paint5_linear_1404_2423)"/>
<path d="M135.597 46.7017H142.726V70.3769C142.726 72.5656 142.231 74.4665 141.243 76.0803C140.266 77.6942 138.906 78.9376 137.162 79.8107C135.419 80.684 133.393 81.1205 131.083 81.1205C129.029 81.1205 127.163 80.7613 125.487 80.0428C123.821 79.3132 122.5 78.208 121.522 76.727C120.545 75.2348 120.062 73.3613 120.073 71.1066H127.252C127.274 72.0019 127.458 72.7699 127.802 73.4111C128.157 74.0411 128.64 74.5275 129.251 74.8701C129.873 75.2016 130.606 75.3673 131.45 75.3673C132.338 75.3673 133.087 75.1795 133.698 74.8037C134.32 74.417 134.792 73.8531 135.114 73.1126C135.436 72.3721 135.597 71.4601 135.597 70.3769V46.7017ZM164.962 69.8133V55.1903H172.057V80.6562H165.245V76.0305H164.978C164.401 77.5227 163.44 78.7221 162.097 79.6283C160.764 80.5346 159.138 80.9877 157.217 80.9877C155.507 80.9877 154.002 80.601 152.703 79.8273C151.404 79.0536 150.388 77.9538 149.655 76.528C148.933 75.1022 148.567 73.3945 148.555 71.4049V55.1903H155.651V70.1448C155.662 71.6481 156.067 72.8363 156.867 73.7094C157.666 74.5827 158.738 75.0192 160.082 75.0192C160.936 75.0192 161.736 74.8257 162.48 74.439C163.224 74.0411 163.824 73.4552 164.279 72.6815C164.745 71.9078 164.973 70.9517 164.962 69.8133ZM177.733 90.2059V55.1903H184.728V59.4679H185.045C185.356 58.7826 185.806 58.0862 186.394 57.3789C186.994 56.6604 187.771 56.0636 188.726 55.5882C189.692 55.1018 190.891 54.8588 192.324 54.8588C194.189 54.8588 195.91 55.3451 197.487 56.3178C199.064 57.2793 200.324 58.7328 201.268 60.6781C202.212 62.6123 202.684 65.0385 202.684 67.9565C202.684 70.7971 202.223 73.1956 201.301 75.1518C200.391 77.0971 199.147 78.5727 197.57 79.5785C196.005 80.5732 194.25 81.0707 192.307 81.0707C190.93 81.0707 189.759 80.844 188.793 80.3909C187.838 79.9378 187.055 79.3687 186.444 78.6832C185.833 77.987 185.367 77.2851 185.045 76.5778H184.829V90.2059H177.733ZM184.678 67.9233C184.678 69.4375 184.889 70.7582 185.311 71.8857C185.733 73.0132 186.344 73.8917 187.144 74.5218C187.943 75.1409 188.915 75.4503 190.059 75.4503C191.213 75.4503 192.191 75.1352 192.99 74.5054C193.789 73.8642 194.395 72.98 194.805 71.8525C195.227 70.7141 195.438 69.4043 195.438 67.9233C195.438 66.4531 195.233 65.1601 194.822 64.0438C194.411 62.9274 193.806 62.0541 193.007 61.4241C192.207 60.7941 191.224 60.4792 190.059 60.4792C188.904 60.4792 187.927 60.7832 187.127 61.3909C186.339 61.9989 185.733 62.861 185.311 63.9774C184.889 65.0937 184.678 66.409 184.678 67.9233ZM207.414 80.6562V55.1903H214.51V80.6562H207.414ZM210.979 51.9076C209.924 51.9076 209.019 51.5596 208.264 50.8631C207.52 50.1558 207.148 49.3102 207.148 48.3264C207.148 47.3538 207.52 46.5193 208.264 45.823C209.019 45.1156 209.924 44.7619 210.979 44.7619C212.034 44.7619 212.933 45.1156 213.677 45.823C214.432 46.5193 214.809 47.3538 214.809 48.3264C214.809 49.3102 214.432 50.1558 213.677 50.8631C212.933 51.5596 212.034 51.9076 210.979 51.9076ZM233.802 55.1903V60.4958H218.395V55.1903H233.802ZM221.893 49.089H228.988V72.8309C228.988 73.483 229.088 73.9913 229.288 74.356C229.488 74.7098 229.766 74.9585 230.121 75.1022C230.487 75.2459 230.909 75.3178 231.387 75.3178C231.72 75.3178 232.053 75.29 232.386 75.2348C232.719 75.1684 232.975 75.1188 233.152 75.0856L234.268 80.3414C233.913 80.4518 233.413 80.5789 232.769 80.7226C232.125 80.8772 231.342 80.9714 230.421 81.0043C228.71 81.0707 227.212 80.844 225.923 80.3248C224.646 79.8052 223.653 78.9983 222.942 77.904C222.231 76.8097 221.882 75.4283 221.893 73.7592V49.089ZM249.808 81.1537C247.177 81.1537 244.912 80.623 243.013 79.5619C241.125 78.4899 239.67 76.9757 238.649 75.0192C237.627 73.0519 237.116 70.7253 237.116 68.0395C237.116 65.4198 237.627 63.1207 238.649 61.1424C239.67 59.1639 241.108 57.6219 242.963 56.5167C244.828 55.4113 247.016 54.8588 249.525 54.8588C251.213 54.8588 252.784 55.1296 254.239 55.6712C255.705 56.2016 256.982 57.0031 258.07 58.0751C259.169 59.1473 260.024 60.4958 260.635 62.1205C261.246 63.7344 261.551 65.6242 261.551 67.7907V69.7303H239.948V65.3534H254.872C254.872 64.3366 254.65 63.4358 254.206 62.6509C253.762 61.8663 253.145 61.2529 252.357 60.8107C251.579 60.3575 250.674 60.1309 249.642 60.1309C248.565 60.1309 247.61 60.3796 246.777 60.8771C245.955 61.3634 245.311 62.0209 244.845 62.8499C244.378 63.668 244.14 64.5797 244.129 65.5855V69.7469C244.129 71.007 244.362 72.0958 244.828 73.0132C245.306 73.9306 245.978 74.638 246.843 75.1354C247.71 75.6327 248.737 75.8814 249.925 75.8814C250.713 75.8814 251.435 75.7709 252.09 75.5499C252.746 75.3287 253.306 74.9972 253.772 74.555C254.239 74.113 254.594 73.5714 254.838 72.9302L261.401 73.3613C261.068 74.9308 260.385 76.3013 259.352 77.4729C258.331 78.6336 257.009 79.5399 255.388 80.192C253.778 80.8331 251.918 81.1537 249.808 81.1537ZM266.181 80.6562V55.1903H273.06V59.6336H273.327C273.793 58.053 274.576 56.8594 275.677 56.0524C276.774 55.2346 278.04 54.8256 279.473 54.8256C279.828 54.8256 280.211 54.8476 280.622 54.892C281.034 54.9361 281.394 54.9968 281.706 55.0743V61.3414C281.373 61.2418 280.912 61.1533 280.323 61.076C279.734 60.9987 279.194 60.9601 278.707 60.9601C277.662 60.9601 276.729 61.1865 275.908 61.6396C275.098 62.0819 274.454 62.7007 273.977 63.4965C273.51 64.2925 273.277 65.2097 273.277 66.2487V80.6562H266.181Z" fill="#111726"/>
</g>
<defs>
<linearGradient id="paint0_linear_1404_2423" x1="70.024" y1="37.8594" x2="31.6382" y2="104.154" gradientUnits="userSpaceOnUse">
<stop offset="0.0001" stop-color="#A4D756"/>
<stop offset="1" stop-color="#00B6E7"/>
</linearGradient>
<linearGradient id="paint1_linear_1404_2423" x1="70.024" y1="37.8594" x2="31.6382" y2="104.154" gradientUnits="userSpaceOnUse">
<stop offset="0.0001" stop-color="#A4D756"/>
<stop offset="1" stop-color="#00B6E7"/>
</linearGradient>
<linearGradient id="paint2_linear_1404_2423" x1="70.024" y1="37.8594" x2="31.6382" y2="104.154" gradientUnits="userSpaceOnUse">
<stop offset="0.0001" stop-color="#A4D756"/>
<stop offset="1" stop-color="#00B6E7"/>
</linearGradient>
<linearGradient id="paint3_linear_1404_2423" x1="70.024" y1="37.8594" x2="31.6382" y2="104.154" gradientUnits="userSpaceOnUse">
<stop offset="0.0001" stop-color="#A4D756"/>
<stop offset="1" stop-color="#00B6E7"/>
</linearGradient>
<linearGradient id="paint4_linear_1404_2423" x1="70.024" y1="37.8594" x2="31.6382" y2="104.154" gradientUnits="userSpaceOnUse">
<stop offset="0.0001" stop-color="#A4D756"/>
<stop offset="1" stop-color="#00B6E7"/>
</linearGradient>
<linearGradient id="paint5_linear_1404_2423" x1="70.024" y1="37.8594" x2="31.6382" y2="104.154" gradientUnits="userSpaceOnUse">
<stop offset="0.0001" stop-color="#A4D756"/>
<stop offset="1" stop-color="#00B6E7"/>
</linearGradient>
<clipPath id="clip0_1404_2423">
<rect width="271" height="83" fill="white" transform="translate(14 21)"/>
</clipPath>
</defs>
</svg>
