<svg width="300" height="125" viewBox="0 0 300 125" fill="none" xmlns="http://www.w3.org/2000/svg">
<g clip-path="url(#clip0_1404_2395)">
<path d="M112.546 18H60.7021C60.3824 18 60.0757 18.1185 59.8493 18.3301C59.6228 18.541 59.4962 18.8278 59.4962 19.1268V67.5683C59.4962 67.8673 59.6236 68.1541 59.8493 68.365C60.0757 68.5759 60.3824 68.6944 60.7021 68.6944H112.546C112.867 68.6944 113.173 68.5759 113.399 68.365C113.625 68.1534 113.752 67.8666 113.752 67.5683V19.1268C113.752 18.8278 113.625 18.5418 113.399 18.3301C113.173 18.1192 112.866 18 112.546 18ZM95.6669 50.6699C95.6669 50.969 95.5396 51.255 95.3139 51.4666C95.0875 51.6776 94.7808 51.7968 94.4611 51.7968H78.7871C78.4674 51.7968 78.1607 51.6783 77.9342 51.4666C77.7078 51.255 77.5812 50.969 77.5812 50.6699V36.0245C77.5812 35.7255 77.7085 35.4394 77.9342 35.2278C78.1607 35.0161 78.4674 34.8977 78.7871 34.8977H94.4611C94.7808 34.8977 95.0875 35.0161 95.3139 35.2278C95.5404 35.4387 95.6669 35.7255 95.6669 36.0245V50.6699Z" fill="black"/>
<path d="M221.079 34.9006H205.405C204.74 34.9006 204.199 35.4048 204.199 36.0274V50.6728C204.199 51.2948 204.74 51.7997 205.405 51.7997H221.079C221.745 51.7997 222.285 51.2955 222.285 50.6728V36.0274C222.285 35.4055 221.745 34.9006 221.079 34.9006Z" fill="black"/>
<path d="M202.998 18.0007H187.324C186.658 18.0007 186.119 18.5049 186.119 19.1276V33.773C186.119 34.3949 186.658 34.8998 187.324 34.8998H202.998C203.664 34.8998 204.204 34.3956 204.204 33.773V19.1276C204.204 18.5056 203.663 18.0007 202.998 18.0007Z" fill="black"/>
<path d="M239.174 18.0007H223.5C222.835 18.0007 222.294 18.5049 222.294 19.1276V33.773C222.294 34.3949 222.835 34.8998 223.5 34.8998H239.174C239.84 34.8998 240.38 34.3956 240.38 33.773V19.1276C240.38 18.5056 239.84 18.0007 239.174 18.0007Z" fill="black"/>
<path d="M202.998 51.7982H187.324C186.658 51.7982 186.119 52.3024 186.119 52.9251V67.5705C186.119 68.1924 186.658 68.6973 187.324 68.6973H202.998C203.664 68.6973 204.204 68.1931 204.204 67.5705V52.9251C204.204 52.3031 203.663 51.7982 202.998 51.7982Z" fill="black"/>
<path d="M239.174 51.7982H223.5C222.835 51.7982 222.294 52.3024 222.294 52.9251V67.5705C222.294 68.1924 222.835 68.6973 223.5 68.6973H239.174C239.84 68.6973 240.38 68.1931 240.38 67.5705V52.9251C240.38 52.3031 239.84 51.7982 239.174 51.7982Z" fill="black"/>
<path d="M175.849 18.0007H160.176C159.509 18.0007 158.97 18.5049 158.97 19.1276V33.773C158.97 34.3949 159.51 34.8998 160.176 34.8998H175.849C176.515 34.8998 177.055 34.3956 177.055 33.773V19.1276C177.055 18.5056 176.515 18.0007 175.849 18.0007Z" fill="black"/>
<path d="M175.849 51.7982H160.176C159.509 51.7982 158.97 52.3024 158.97 52.9251V67.5705C158.97 68.1924 159.51 68.6973 160.176 68.6973H175.849C176.515 68.6973 177.055 68.1931 177.055 67.5705V52.9251C177.055 52.3031 176.515 51.7982 175.849 51.7982Z" fill="black"/>
<path d="M158.964 36.0122C158.964 35.7132 158.837 35.4271 158.611 35.2155C158.385 35.0038 158.078 34.8854 157.759 34.8854H140.879V19.1268C140.879 18.8278 140.752 18.5418 140.526 18.3301C140.3 18.1192 139.993 18 139.674 18H124.001C123.68 18 123.374 18.1185 123.148 18.3301C122.922 18.541 122.795 18.8278 122.795 19.1268V67.543C122.795 67.8421 122.922 68.1281 123.148 68.3397C123.374 68.5514 123.681 68.6699 124.001 68.6699H139.674C139.994 68.6699 140.3 68.5514 140.526 68.3397C140.752 68.1281 140.879 67.8421 140.879 67.543V51.7838H157.759C158.079 51.7838 158.385 51.6653 158.611 51.4536C158.837 51.242 158.964 50.956 158.964 50.6569V36.0115V36.0122Z" fill="black"/>
<path d="M180.177 81.924C182.624 81.924 184.843 82.4152 186.832 83.3969C188.822 84.3792 190.394 85.8116 191.549 87.6962C192.703 89.5801 193.281 91.8244 193.281 94.4277C193.281 97.031 192.703 99.2811 191.549 101.176C190.394 103.073 188.827 104.517 186.849 105.51C184.871 106.503 182.647 107 180.177 107H171.12V81.924H180.177ZM179.525 102.067C182.018 102.067 183.904 101.405 185.185 100.08C186.466 98.7559 187.107 96.8714 187.107 94.4277C187.107 91.984 186.46 90.1399 185.168 88.8267C183.875 87.5135 181.995 86.8569 179.525 86.8569H176.987V102.066H179.525V102.067Z" fill="black"/>
<path d="M212.767 96.8945H202.956V101.93H214.311V107H197.09V81.924H213.9V86.9594H202.956V91.8923H212.768V96.8937L212.767 96.8945Z" fill="black"/>
<path d="M240.554 81.924L231.771 94.0853L240.999 107H233.76L228.169 98.8469L222.474 107H215.751L224.979 94.2225L216.196 81.9247H223.366L228.546 89.4609L233.795 81.9247H240.554V81.924Z" fill="black"/>
<path d="M158.939 92.6804H59V96.2191H158.939V92.6804Z" fill="black"/>
</g>
<defs>
<clipPath id="clip0_1404_2395">
<rect width="182" height="89" fill="white" transform="translate(59 18)"/>
</clipPath>
</defs>
</svg>
