<svg width="300" height="125" viewBox="0 0 300 125" fill="none" xmlns="http://www.w3.org/2000/svg">
<g clip-path="url(#clip0_1404_2459)">
<path fill-rule="evenodd" clip-rule="evenodd" d="M106.553 70.509L103.126 64.6238H98.1078V70.509H95.1562V52.8378H104.044C105.127 52.8293 106.192 53.1165 107.123 53.6681C108.054 54.2199 108.814 55.0149 109.321 55.9665C109.829 56.9181 110.064 57.9899 110.001 59.0652C109.937 60.1405 109.579 61.178 108.963 62.0645C108.321 63.0048 107.414 63.7362 106.356 64.1676L110.013 70.509H106.553ZM104.044 55.8373H98.1078V61.7059H104.044C104.432 61.7056 104.815 61.626 105.171 61.4717C105.526 61.3176 105.846 61.0919 106.11 60.8093C106.519 60.3968 106.796 59.874 106.908 59.3059C107.02 58.7377 106.961 58.1493 106.739 57.6141C106.517 57.0789 106.142 56.6203 105.66 56.2956C105.178 55.9711 104.61 55.7947 104.028 55.7885L104.044 55.8373ZM135.644 52.8378L126.739 70.509H130.052L135.644 59.4399L141.219 70.509H144.532L135.644 52.8378ZM173.163 52.8378H169.391L164.324 59.3584L159.273 52.8378H155.485L162.914 62.2602V70.509H165.865V62.1135L173.163 52.8378ZM188.282 52.8378H194.202C196.553 52.8549 198.804 53.7913 200.467 55.4446C202.13 57.0977 203.072 59.3354 203.089 61.6734C203.076 64.0128 202.136 66.2525 200.472 67.9068C198.808 69.5611 196.555 70.4961 194.202 70.509H188.282V52.8378ZM194.202 67.5093C195.77 67.5051 197.273 66.8836 198.383 65.7809C199.492 64.6782 200.117 63.184 200.121 61.6244C200.104 60.0689 199.475 58.5818 198.369 57.4819C197.262 56.382 195.766 55.7565 194.202 55.7394H191.217V67.5093H194.202ZM222.817 52.8378H219.865V70.509H222.817V52.8378ZM254.401 63.1241C254.417 64.0962 254.231 65.0612 253.856 65.9589C253.481 66.8564 252.925 67.6675 252.218 68.3407C251.183 69.3706 249.865 70.0716 248.428 70.3551C246.99 70.6384 245.502 70.4915 244.149 69.9328C242.796 69.374 241.642 68.4287 240.83 67.2166C240.019 66.0045 239.588 64.5801 239.592 63.1241V52.8378H242.544V63.1241C242.544 64.2959 243.012 65.4195 243.846 66.2481C244.678 67.0765 245.808 67.542 246.987 67.542C248.166 67.542 249.297 67.0765 250.131 66.2481C250.963 65.4195 251.431 64.2959 251.431 63.1241V52.8378H254.401V63.1241ZM274.127 70.509V59.9454L280.079 65.8465L286 59.9454V70.509H289V52.8378L280.079 61.6734L271.192 52.8378V70.509H274.127Z" fill="#0A0A0A"/>
<path d="M73.2315 52.2835V78.562L43.8293 95.4342L14.4109 78.562V44.801L43.8293 27.9124L66.4263 40.8886L69.8371 38.9324L43.8293 24L11 42.8448V80.5182L43.8293 99.363L76.6587 80.5182V50.3273L73.2315 52.2835Z" fill="url(#paint0_linear_1404_2459)"/>
<path d="M35.5974 78.5784H30.6779V62.1787H47.0763C48.6278 62.1617 50.11 61.538 51.2025 60.4427C52.295 59.3476 52.9099 57.8688 52.914 56.3263C52.9229 55.5637 52.7748 54.8072 52.4787 54.1036C52.1824 53.3998 51.7448 52.7639 51.1921 52.2347C50.6574 51.6884 50.0173 51.2552 49.31 50.9611C48.6027 50.6668 47.8429 50.5178 47.0763 50.5229H30.6779V45.5346H47.0925C49.9663 45.5517 52.7176 46.6942 54.7498 48.7143C56.7817 50.7345 57.931 53.4696 57.9482 56.3263C57.9658 58.5132 57.2951 60.6507 56.0297 62.4394C54.8651 64.151 53.224 65.4879 51.307 66.2866C49.4087 66.8852 47.4277 67.1823 45.4363 67.1671H35.5974V78.5784Z" fill="url(#paint1_linear_1404_2459)"/>
<path d="M57.8335 78.1707H52.0939L47.6666 70.4927C49.4182 70.386 51.146 70.0348 52.7991 69.4494L57.8335 78.1707Z" fill="url(#paint2_linear_1404_2459)"/>
<path d="M69.8042 46.8225L73.1986 48.6972L76.5932 46.8225V42.8611L73.1986 40.9049L69.8042 42.8611V46.8225Z" fill="url(#paint3_linear_1404_2459)"/>
</g>
<defs>
<linearGradient id="paint0_linear_1404_2459" x1="76.6006" y1="42.8656" x2="7.09819" y2="70.8239" gradientUnits="userSpaceOnUse">
<stop stop-color="#C200FB"/>
<stop offset="0.489658" stop-color="#3772FF"/>
<stop offset="0.489758" stop-color="#3773FE"/>
<stop offset="1" stop-color="#5AC4BE"/>
</linearGradient>
<linearGradient id="paint1_linear_1404_2459" x1="76.6006" y1="42.8656" x2="7.09818" y2="70.8239" gradientUnits="userSpaceOnUse">
<stop stop-color="#C200FB"/>
<stop offset="0.489658" stop-color="#3772FF"/>
<stop offset="0.489758" stop-color="#3773FE"/>
<stop offset="1" stop-color="#5AC4BE"/>
</linearGradient>
<linearGradient id="paint2_linear_1404_2459" x1="76.6006" y1="42.8656" x2="7.09818" y2="70.824" gradientUnits="userSpaceOnUse">
<stop stop-color="#C200FB"/>
<stop offset="0.489658" stop-color="#3772FF"/>
<stop offset="0.489758" stop-color="#3773FE"/>
<stop offset="1" stop-color="#5AC4BE"/>
</linearGradient>
<linearGradient id="paint3_linear_1404_2459" x1="76.6006" y1="42.8655" x2="7.09821" y2="70.8239" gradientUnits="userSpaceOnUse">
<stop stop-color="#C200FB"/>
<stop offset="0.489658" stop-color="#3772FF"/>
<stop offset="0.489758" stop-color="#3773FE"/>
<stop offset="1" stop-color="#5AC4BE"/>
</linearGradient>
<clipPath id="clip0_1404_2459">
<rect width="278" height="76" fill="white" transform="translate(11 24)"/>
</clipPath>
</defs>
</svg>
